<?xml version="1.0" encoding="utf-8"?>
<!-- Generator: Adobe Illustrator 25.1.0, SVG Export Plug-In . SVG Version: 6.00 Build 0)  -->
<svg version="1.1" id="Calque_1" xmlns="http://www.w3.org/2000/svg" xmlns:xlink="http://www.w3.org/1999/xlink" x="0px" y="0px"
	 viewBox="0 0 398.9 257.9" style="enable-background:new 0 0 398.9 257.9;" xml:space="preserve">
<style type="text/css">
	.st0{fill:#FFFFFF;}
</style>
<g>
	<path class="st0" d="M368.7,0c-10.2,0-18.4,8.2-18.4,18.4v141.7L224.1,0.4l-87.6,110.7L78.8,38.4c-19.1-24-48.1-38-78.8-38v257.5
		c26.9,0,48.6-21.8,48.6-48.6V70.6L127.8,179c1.8,2.5,4.7,3.9,7.7,3.9s5.8-1.4,7.6-3.8l81-108.1l9.2,13.3l134.3,173.5l1.1,0.1h30.2
		V0H368.7z"/>
	<path class="st0" d="M175.5,257.8c26.9,0,48.6-12.1,48.6-27.1V114l-48.6,62.6V257.8z"/>
</g>
</svg>
