<?xml version="1.0" encoding="utf-8"?>
<!-- Generator: Adobe Illustrator 25.1.0, SVG Export Plug-In . SVG Version: 6.00 Build 0)  -->
<svg version="1.1" id="Calque_1" xmlns="http://www.w3.org/2000/svg" xmlns:xlink="http://www.w3.org/1999/xlink" x="0px" y="0px"
	 viewBox="0 0 89.8 58.1" style="enable-background:new 0 0 89.8 58.1;" xml:space="preserve">
<style type="text/css">
	.st0{fill:#FFFFFF;}
</style>
<g>
	<path class="st0" d="M83,0c-2.3,0-4.1,1.9-4.1,4.1v32l-28.4-36L30.7,25l-13-16.4C13.4,3.2,6.9,0,0,0v58c6,0,10.9-4.9,10.9-10.9
		V15.9l17.9,24.4c0.4,0.6,1,0.9,1.7,0.9s1.3-0.4,1.7-0.9l18.2-24.2l2.1,2.9l30.2,39.1H83h6.8V0H83z"/>
	<path class="st0" d="M39.6,58.1c6,0,10.9-2.7,10.9-6.1V25.7L39.6,39.8V58.1z"/>
</g>
</svg>
