<?xml version="1.0" encoding="utf-8"?>
<!-- Generator: Adobe Illustrator 25.2.0, SVG Export Plug-In . SVG Version: 6.00 Build 0)  -->
<svg version="1.1" id="Calque_1" xmlns="http://www.w3.org/2000/svg" xmlns:xlink="http://www.w3.org/1999/xlink" x="0px" y="0px"
	 viewBox="0 0 72 72" style="enable-background:new 0 0 72 72;" xml:space="preserve">
<style type="text/css">
	.st0{fill:none;}
</style>
<rect class="st0" width="72" height="72"/>
<g>
	<path d="M55.7,21c-1.2,0-2.1,1-2.1,2.1v16.5L38.9,21.1L28.7,33.9l-6.7-8.5c-2.2-2.8-5.6-4.4-9.1-4.4v29.9c3.1,0,5.6-2.5,5.6-5.6
		V29.2l9.2,12.6c0.2,0.3,0.5,0.5,0.9,0.5c0.4,0,0.7-0.2,0.9-0.5l9.4-12.5l1.1,1.5L55.5,51h0.2h3.5V21H55.7z"/>
	<path d="M33.3,51c3.1,0,5.6-1.4,5.6-3.1V34.3l-5.6,7.3V51z"/>
</g>
</svg>
